# xmcd
#
# Track frame offsets:
#	150
#	16580
#	32673
#	46586
#	55179
#	67456
#
# Disc length: 1142 seconds
# Revision: 2
# Processed by: cddbd v1.5.2PL0 Copyright (c) Steve Scherf et al.
# Submitted via: dBpowerAMP V12.0
#
DISCID=45047406
DTITLE=Justin Townes Earle - Yuma
DYEAR=2007
DGENRE=Country
TTITLE0=The Ghost Of Virginia
TTITLE1=You Can't Leave
TTITLE2=Yuma
TTITLE3=I Don't Care
TTITLE4=Let The Waters Rise
TTITLE5=A Desolate Angels Blues
EXTD=
EXTT0=
EXTT1=
EXTT2=
EXTT3=
EXTT4=
EXTT5=
PLAYORDER=
